<svg width="12" height="12" viewBox="0 0 12 12" fill="none" xmlns="http://www.w3.org/2000/svg">
<path d="M11 5.04704C11.05 4.79704 10.85 4.49704 10.6 4.49704L7.75 4.09704L6.45 1.49704C6.4 1.39704 6.35 1.34704 6.25 1.29704C6 1.14704 5.7 1.24704 5.55 1.49704L4.3 4.09704L1.45 4.49704C1.3 4.49704 1.2 4.54704 1.15 4.64704C0.95 4.84704 0.95 5.14704 1.15 5.34704L3.2 7.34704L2.7 10.197C2.7 10.297 2.7 10.397 2.75 10.497C2.9 10.747 3.2 10.847 3.45 10.697L6 9.34704L8.55 10.697C8.6 10.747 8.7 10.747 8.8 10.747C8.85 10.747 8.85 10.747 8.9 10.747C9.15 10.697 9.35 10.447 9.3 10.147L8.8 7.29704L10.85 5.29704C10.95 5.24704 11 5.14704 11 5.04704Z" fill="#D4AF37"/>
</svg>
