<svg width="24" height="24" viewBox="0 0 24 24" fill="none" xmlns="http://www.w3.org/2000/svg">
<path fill-rule="evenodd" clip-rule="evenodd" d="M11.9022 6.75C12.4545 6.75 12.9022 7.19772 12.9022 7.75V7.83327C13.5914 8.0297 14.1993 8.42925 14.5982 8.99566C14.9162 9.44721 14.8079 10.0711 14.3564 10.389C13.9048 10.707 13.281 10.5988 12.963 10.1472C12.8102 9.9302 12.4362 9.69463 11.9022 9.69463C11.0415 9.69463 10.75 10.2147 10.75 10.4086C10.75 10.5446 10.7713 10.6115 10.7827 10.6375C10.7902 10.6548 10.7984 10.6684 10.8272 10.6894C10.9137 10.7523 11.1935 10.8778 11.9022 10.8778C12.7498 10.8778 13.5918 11.0026 14.2387 11.4579C14.9622 11.9673 15.25 12.7446 15.25 13.5917C15.25 14.5444 14.8142 15.288 14.1063 15.7469C13.7414 15.9835 13.3276 16.1306 12.9022 16.2141V16.25C12.9022 16.8023 12.4545 17.25 11.9022 17.25C11.3499 17.25 10.9022 16.8023 10.9022 16.25V16.1846C10.2997 16.0347 9.75269 15.7487 9.33314 15.3434C8.93592 14.9597 8.92497 14.3266 9.30868 13.9294C9.69239 13.5322 10.3255 13.5212 10.7227 13.905C10.9366 14.1116 11.3537 14.3057 11.9022 14.3057C12.4494 14.3057 12.8184 14.1984 13.0183 14.0688C13.1602 13.9768 13.25 13.8634 13.25 13.5917C13.25 13.2147 13.1465 13.1349 13.0874 13.0934C12.9516 12.9978 12.6198 12.8778 11.9022 12.8778C11.0456 12.8778 10.2493 12.742 9.65104 12.307C8.9821 11.8206 8.75 11.1077 8.75 10.4086C8.75 9.08338 9.74484 8.17449 10.9022 7.83859V7.75C10.9022 7.19771 11.3499 6.75 11.9022 6.75Z" fill="#0D0D0D"/>
<path fill-rule="evenodd" clip-rule="evenodd" d="M12.0001 22.75C12.0492 22.75 12.0976 22.7462 12.1447 22.7393C16.8319 22.5515 21.0811 19.4595 22.3702 14.7939C23.9627 9.03024 20.4152 3.14639 14.5265 1.61621C9.00443 0.18133 3.30918 3.06047 1.31654 8.17871C1.20329 8.46978 1.2359 8.7976 1.40443 9.06055C1.5731 9.32359 1.85812 9.49031 2.17005 9.50879L4.69056 9.6582C5.22933 9.69009 5.69184 9.27901 5.72376 8.74023C5.75568 8.20145 5.34458 7.73895 4.80579 7.70703L3.74134 7.64355C5.73464 4.25957 9.92022 2.4395 14.0353 3.50879C18.921 4.77861 21.7738 9.61412 20.4865 14.2734C19.4196 18.1346 15.8309 20.7294 11.8439 20.7939C11.8276 20.7936 11.8113 20.7934 11.7951 20.793C11.2555 20.7789 10.8072 21.2046 10.7931 21.7441C10.779 22.2837 11.2047 22.733 11.7443 22.7471C11.8293 22.7493 11.9146 22.75 12.0001 22.75ZM2.24915 12.2305C2.78869 12.2198 3.21768 11.7739 3.20716 11.2344C3.20578 11.164 3.20521 11.0931 3.20521 11.0225C3.20512 10.4828 2.76731 10.045 2.22767 10.0449C1.68799 10.0449 1.25022 10.4828 1.25013 11.0225C1.25013 11.1059 1.25142 11.1894 1.25306 11.2725C1.2637 11.8121 1.70952 12.2411 2.24915 12.2305ZM1.80384 14.7119C1.96286 15.2276 2.50982 15.5173 3.02552 15.3584C3.54112 15.1994 3.8307 14.6523 3.67201 14.1367C3.6308 14.0031 3.59181 13.8675 3.55579 13.7314C3.41757 13.2098 2.88217 12.899 2.36048 13.0371C1.83913 13.1754 1.52836 13.71 1.66615 14.2314C1.70887 14.3928 1.75494 14.5533 1.80384 14.7119ZM3.29701 17.8672C3.5957 18.3166 4.202 18.4392 4.6515 18.1406C5.10102 17.8419 5.22367 17.2347 4.92494 16.7852C4.84787 16.6692 4.77288 16.5514 4.70033 16.4316C4.42068 15.97 3.81917 15.822 3.35755 16.1016C2.89592 16.3812 2.74878 16.9827 3.02845 17.4443C3.11516 17.5874 3.20476 17.7284 3.29701 17.8672ZM5.6554 20.4629C6.07581 20.8014 6.69191 20.7349 7.0304 20.3145C7.36844 19.8941 7.30218 19.2788 6.88197 18.9404C6.77429 18.8537 6.66773 18.7648 6.56361 18.6729C6.15905 18.3157 5.54195 18.3543 5.1847 18.7588C4.8276 19.1633 4.86539 19.7804 5.26966 20.1377C5.39576 20.2491 5.52461 20.3576 5.6554 20.4629ZM8.74134 22.1924C9.25037 22.3713 9.80829 22.1036 9.98744 21.5947C10.1664 21.0856 9.89878 20.5278 9.38978 20.3486C9.26068 20.3032 9.13264 20.254 9.00599 20.2021C8.50654 19.9975 7.93522 20.2369 7.7306 20.7363C7.52627 21.2357 7.76549 21.8062 8.26478 22.0107C8.42185 22.0751 8.58081 22.1359 8.74134 22.1924Z" fill="#0D0D0D"/>
</svg>
