<svg width="24" height="24" viewBox="0 0 24 24" fill="none" xmlns="http://www.w3.org/2000/svg">
<path d="M21.4854 12.7687C21.4754 12.6525 21.3448 12.5884 21.2442 12.6472C20.7451 12.939 20.2134 13.1471 19.6866 13.3022C19.2074 13.4432 18.7282 13.5842 18.2489 13.7253C17.2537 14.0181 16.2585 14.3109 15.2635 14.6044C14.0708 14.9562 13.0697 15.2514 12 15.2514C10.9302 15.2514 9.9291 14.9562 8.73646 14.6044C7.74155 14.3109 6.74644 14.0181 5.75133 13.7253C5.272 13.5843 4.79267 13.4433 4.31336 13.3022C3.78659 13.1471 3.25485 12.939 2.75574 12.6472C2.65505 12.5884 2.52444 12.6525 2.51442 12.7687C2.34263 14.7607 2.20723 16.3307 2.26255 17.5627C2.31918 18.8237 2.57824 19.856 3.30037 20.6896C4.02831 21.53 4.99744 21.904 6.20306 22.0805C7.36976 22.2513 8.87182 22.2512 10.7622 22.2512H13.2377C15.128 22.2512 16.6301 22.2513 17.7968 22.0805C19.0024 21.904 19.9715 21.53 20.6995 20.6896C21.4216 19.856 21.6806 18.8237 21.7373 17.5627C21.7926 16.3307 21.6572 14.7607 21.4854 12.7687Z" stroke="#0D0D0D" stroke-width="1.5" stroke-linecap="round" stroke-linejoin="round"/>
<path d="M18.6709 4.5L19.0986 4.50098C19.5166 4.5047 19.9053 4.5222 20.2578 4.60352C21.5079 4.8919 22.6605 5.81388 22.9453 7.19629C23.0502 7.70533 22.9759 8.25181 22.9219 8.69727C22.814 9.59068 22.5162 10.5227 21.7988 11.2695C21.1631 11.9313 20.3417 12.3255 19.4736 12.5811L15.1924 13.8418C13.9047 14.2211 12.98 14.5 11.999 14.5C11.0182 14.5 10.0942 14.221 8.80664 13.8418L4.52441 12.5811C3.65642 12.3255 2.8349 11.9312 2.19922 11.2695C1.48201 10.5228 1.18501 9.59058 1.07715 8.69727C1.02316 8.25179 0.948862 7.70535 1.05371 7.19629C1.33854 5.81392 2.49116 4.89188 3.74121 4.60352C4.21101 4.49522 4.74499 4.50075 5.32715 4.50098V4.5H18.6709Z" stroke="#0D0D0D" stroke-width="1.5"/>
<path fill-rule="evenodd" clip-rule="evenodd" d="M11.8414 1.5C11.9469 1.50002 12.0529 1.50002 12.1578 1.5C12.7185 1.49994 13.2313 1.49989 13.6583 1.5556C14.1342 1.61769 14.6011 1.75865 15.0223 2.10567C15.4322 2.44331 15.6742 2.87391 15.8581 3.32585C16.0313 3.7512 16.1879 4.28824 16.3686 4.90811L16.5312 5.42111L14.6256 6.02844L14.4658 5.52697L14.4624 5.5151C14.2639 4.83479 14.1353 4.39822 14.0057 4.07988C13.8704 3.74743 13.7588 3.58567 13.3996 3.53879C13.1174 3.50197 12.737 3.50001 12.102 3.50001H11.8973C11.2623 3.50001 10.8819 3.50197 10.5997 3.53879C10.2404 3.58567 10.1288 3.74743 9.99352 4.07988C9.86404 4.39797 9.73551 4.83412 9.53734 5.51352L9.42962 5.88737L7.50781 5.33362C7.54868 5.19177 7.58926 5.04983 7.63059 4.90812C7.81135 4.28825 7.96796 3.7512 8.1411 3.32585C8.32507 2.87391 8.56701 2.44331 8.97691 2.10567C9.39819 1.75865 9.86504 1.61769 10.3409 1.5556C10.7679 1.49989 11.2807 1.49994 11.8414 1.5Z" fill="#0D0D0D"/>
</svg>
